<?xml version="1.0" encoding="UTF-8"?>
<svg xmlns="http://www.w3.org/2000/svg" xmlns:xlink="http://www.w3.org/1999/xlink" viewBox="0 0 40 40" width="40px" height="40px">
<g id="surface3653337">
<path style=" stroke:none;fill-rule:nonzero;fill:rgb(18.039216%,80.000001%,44.313726%);fill-opacity:1;" d="M 20 0 C 8.953125 0 0 8.953125 0 20 C 0 31.046875 8.953125 40 20 40 C 31.046875 40 40 31.046875 40 20 C 40 8.953125 31.046875 0 20 0 Z M 31.179688 16.179688 L 18.578125 28.777344 C 18.265625 29.089844 17.839844 29.265625 17.398438 29.265625 C 16.957031 29.265625 16.535156 29.089844 16.222656 28.777344 L 10.464844 23.023438 C 9.816406 22.371094 9.816406 21.316406 10.464844 20.667969 C 11.117188 20.015625 12.171875 20.015625 12.824219 20.667969 L 17.398438 25.242188 L 28.820312 13.820312 C 29.472656 13.171875 30.527344 13.171875 31.179688 13.820312 C 31.828125 14.472656 31.828125 15.527344 31.179688 16.179688 Z M 31.179688 16.179688 "/>
</g>
</svg>
